#!OML:ASF F:\VICON\USERDATA\INSTALL\rory3\rory3.ASF
:FULLY-SPECIFIED
:DEGREES
253
root -1.54303 16.4509 -4.40505 1.95091 2.57058 -1.8344
lowerback 12.5638 1.47886 -3.16573
upperback -4.36024 1.67453 2.07199
thorax -12.0292 1.13573 3.6826
lowerneck -10.1952 -6.85702 -4.28311
upperneck 18.7466 -9.49789 3.99484
head 7.86274 -4.4641 1.06481
rclavicle -4.82053e-015 6.36111e-015
rhumerus -31.3044 1.44001 -82.7929
rradius 28.7371
rwrist 6.14392
rhand -11.1648 20.0431
rfingers 7.12502
rthumb 14.8618 -9.40388
lclavicle -4.82053e-015 6.36111e-015
lhumerus -41.0877 2.49847 89.118
lradius 24.7817
lwrist 1.93337
lhand -4.28585 20.221
lfingers 7.12502
lthumb 21.4794 49.0501
rfemur 9.14696 13.0694 31.489
rtibia 8.47186
rfoot -15.2504 -11.8861
rtoes 23.6361
lfemur -36.2946 -16.5831 -12.7715
ltibia 33.5139
lfoot -9.16858 10.8125
ltoes 3.33314
254
root -1.53499 16.4532 -4.27528 2.04347 2.39729 -1.79607
lowerback 12.4674 1.51275 -3.27213
upperback -4.40209 1.70551 2.08117
thorax -12.0266 1.15987 3.74711
lowerneck -10.2735 -6.82355 -4.37497
upperneck 18.8396 -9.43898 4.0035
head 7.9101 -4.43901 1.08449
rclavicle 8.84592e-015 1.11319e-014
rhumerus -31.3161 2.03258 -82.9552
rradius 28.8351
rwrist 6.25594
rhand -11.843 20.6255
rfingers 7.12502
rthumb 14.2082 -8.86857
lclavicle 8.84592e-015 1.11319e-014
lhumerus -41.1666 2.44312 89.283
lradius 24.7597
lwrist 1.98999
lhand -4.46663 20.1243
lfingers 7.12502
lthumb 21.3058 48.9732
rfemur 11.4065 12.8875 31.4569
rtibia 5.19642
rfoot -14.1239 -11.8019
rtoes 23.248
lfemur -36.4669 -18.1529 -11.964
ltibia 32.0646
lfoot -10.0888 12.505
ltoes 4.03791
255
root -1.51462 16.451 -4.1254 2.01111 1.72524 -1.77453
lowerback 12.2921 1.71021 -3.30075
upperback -4.38661 1.96647 2.03853
thorax -11.9282 1.28159 3.65809
lowerneck -10.3423 -6.83644 -4.32764
upperneck 18.8908 -9.46238 3.98447
head 7.93709 -4.44681 1.06508
rclavicle -9.69696e-015 -1.59028e-015
rhumerus -31.2876 2.53317 -83.1777
rradius 28.8824
rwrist 6.40532
rhand -12.0173 20.7006
rfingers 7.12502
rthumb 14.0403 -8.80515
lclavicle -9.69696e-015 -1.59028e-015
lhumerus -41.3268 2.36745 89.3221
lradius 24.6934
lwrist 1.87344
lhand -4.73595 19.7011
lfingers 7.12502
lthumb 21.0471 48.5789
rfemur 14.9384 13.1781 31.4009
rtibia -1.27222e-014
rfoot -12.0555 -11.8515
rtoes 22.2834
lfemur -36.3891 -19.6574 -11.1243
ltibia 30.7971
lfoot -11.5512 14.5715
ltoes 5.7992
256
root -1.5018 16.4425 -3.99148 2.029 1.5699 -1.91985
lowerback 12.2461 1.72549 -3.23147
upperback -4.39746 2.00815 2.1091
thorax -11.917 1.29969 3.68755
lowerneck -10.4605 -6.80322 -4.23311
upperneck 18.8651 -9.40306 3.86218
head 7.93605 -4.42179 1.01299
rclavicle 9.06955e-016 1.59028e-014
rhumerus -31.1248 3.00724 -83.3156
rradius 28.7375
rwrist 6.58104
rhand -12.2879 21.0773
rfingers 7.12502
rthumb 13.7795 -8.44633
lclavicle 9.06955e-016 1.59028e-014
lhumerus -41.4363 2.47534 89.3634
lradius 24.7834
lwrist 1.86266
lhand -4.59355 19.8898
lfingers 7.12502
lthumb 21.1839 48.7524
rfemur 15.4042 12.9772 31.5381
rtibia 2.54444e-014
rfoot -12.2789 -11.5043
rtoes 22.4152
lfemur -36.6397 -21.143 -10.1274
ltibia 29.6911
lfoot -12.8968 16.1463
ltoes 7.41524
257
root -1.50485 16.4253 -3.88507 2.20443 2.06079 -2.07198
lowerback 12.3481 1.54639 -3.25934
upperback -4.47427 1.77087 2.20615
thorax -12.0483 1.19816 3.86415
lowerneck -10.2194 -6.71165 -4.28007
upperneck 18.5983 -9.28198 3.961
head 7.80634 -4.36632 1.07784
rclavicle -3.35946e-014 -1.64991e-014
rhumerus -30.917 3.29137 -83.3989
rradius 28.6965
rwrist 6.68523
rhand -12.4454 21.506
rfingers 7.12502
rthumb 13.6278 -8.02794
lclavicle -3.35946e-014 -1.64991e-014
lhumerus -41.3047 2.33194 89.5486
lradius 24.7995
lwrist 2.03666
lhand -4.41574 20.2008
lfingers 7.12502
lthumb 21.3547 49.0441
rfemur 15.601 12.1646 31.6983
rtibia 5.725e-014
rfoot -12.6016 -11.1292
rtoes 22.4304
lfemur -37.3917 -22.3698 -9.1749
ltibia 28.7611
lfoot -13.4284 17.202
ltoes 6.78051
258
root -1.5113 16.4092 -3.7794 2.40703 2.40048 -2.24516
lowerback 12.4713 1.42292 -3.33325
upperback -4.58026 1.59957 2.29707
thorax -12.2334 1.1333 4.04637
lowerneck -9.91681 -6.62893 -4.30499
upperneck 18.5101 -9.17986 4.01603
head 7.72244 -4.3211 1.12237
rclavicle 1.24178e-014 1.82882e-014
rhumerus -30.7233 3.75596 -83.5863
rradius 28.6429
rwrist 6.59081
rhand -12.5353 21.5603
rfingers 7.12502
rthumb 13.5411 -7.97941
lclavicle 1.24178e-014 1.82882e-014
lhumerus -41.167 2.23393 89.6551
lradius 24.5579
lwrist 2.04957
lhand -4.71138 19.815
lfingers 7.12502
lthumb 21.0707 48.6902
rfemur 15.7743 11.5054 31.8917
rtibia 6.36111e-015
rfoot -12.8407 -10.722
rtoes 21.8464
lfemur -38.0986 -23.281 -8.22809
ltibia 27.9976
lfoot -14.2046 17.917
ltoes 7.13316
259
root -1.50059 16.3984 -3.64705 2.45348 2.18738 -2.29951
lowerback 12.4959 1.43209 -3.42916
upperback -4.64028 1.59981 2.33946
thorax -12.3228 1.14634 4.14843
lowerneck -10.0784 -6.59367 -4.17566
upperneck 18.6806 -9.12196 3.83907
head 7.78999 -4.29604 1.04289
rclavicle 4.32854e-014 1.23246e-014
rhumerus -30.6214 4.22233 -83.7953
rradius 28.5177
rwrist 6.48187
rhand -12.657 21.6873
rfingers 7.12502
rthumb 13.4239 -7.86018
lclavicle 4.32854e-014 1.23246e-014
lhumerus -41.2873 2.29086 89.6393
lradius 24.5725
lwrist 2.04281
lhand -4.82304 19.6957
lfingers 7.12502
lthumb 20.9634 48.5828
rfemur 16.2443 11.3614 31.9373
rtibia -3.18055e-014
rfoot -12.9837 -10.4323
rtoes 20.4542
lfemur -38.3456 -24.1494 -7.52207
ltibia 27.3201
lfoot -15.405 18.9134
ltoes 7.81165
